<svg width="128" height="168" viewBox="0 0 128 168" fill="none" xmlns="http://www.w3.org/2000/svg">
<rect x="0.650024" y="0.527588" width="126.85" height="166.465" rx="11.8202" fill="white" stroke="#D3D3D3"/>
<rect x="7" y="9" width="114.15" height="149.52" rx="11" fill="#FED245"/>
<mask id="mask0_66_167" style="mask-type:alpha" maskUnits="userSpaceOnUse" x="11" y="13" width="106" height="142">
<path d="M11.0643 97.738C10.9925 96.7237 11.0492 95.6665 11.0475 94.6464L11.042 88.5281L11.0397 69.9017L11.041 36.5555C11.0419 31.2815 10.9549 25.9948 11.033 20.7224C11.0655 18.5184 11.5397 16.7655 13.1753 15.2023C14.2259 14.1982 15.6373 13.5568 17.0558 13.2802C19.186 12.8648 23.0864 13.1007 25.4324 13.0999C30.6616 13.0773 35.8908 13.0872 41.1199 13.1297C42.8362 13.0354 44.5822 13.094 46.3012 13.0959L55.133 13.1022L82.9854 13.1018L101.102 13.101L106.499 13.0963C107.689 13.0961 108.914 13.0404 110.097 13.1805C111.592 13.3578 113.191 14.0243 114.322 15.0258C115.867 16.3939 116.599 18.192 116.698 20.2259C116.816 22.6535 116.696 25.1178 116.707 27.5501L116.717 45.4839L116.726 93.9621L116.723 129.967L116.729 141.336C116.73 143.347 116.843 145.419 116.673 147.42C116.532 149.077 115.954 150.536 114.826 151.774C113.175 153.586 111.09 154.273 108.692 154.37C106.543 154.457 104.369 154.388 102.216 154.388L89.8144 154.389L51.8214 154.376L29.2031 154.375L22.2292 154.381C20.8066 154.382 19.3441 154.45 17.9295 154.288C16.2243 154.093 14.5324 153.374 13.2778 152.186C12.9483 151.874 12.4221 151.332 12.2759 150.908C11.6479 150.029 11.2548 148.814 11.1402 147.744C10.9333 145.815 11.0529 143.793 11.0482 141.853L11.038 130.871L11.0643 97.738Z" fill="#99CB39"/>
</mask>
<g mask="url(#mask0_66_167)">
<mask id="mask1_66_167" style="mask-type:alpha" maskUnits="userSpaceOnUse" x="-34" y="-14" width="196" height="197">
<circle cx="64" cy="84.0002" r="98" fill="#D9D9D9"/>
</mask>
<g mask="url(#mask1_66_167)">
<circle cx="64" cy="84.0002" r="98" fill="#AFD456"/>
<path d="M123.5 59.5001C80.5 12.0001 30.5001 60.0002 62.0001 83.5002C59.5 66.5003 80.0001 54.5 94.0001 66C111.5 79 122 117.5 88.0001 152.5C48.5001 182 6.50006 176 -26.9999 148.5C-20.9999 161 23.5001 202.5 71.5001 196.5C119.5 190.5 166.5 107 123.5 59.5001Z" fill="#99C749"/>
<path d="M46.0001 141.5C108.636 128.011 92.5001 61.5002 63 83.5005C78.9724 89.8354 64.9593 109.626 48 116C27.9917 124.656 -7.99998 110.501 -21 56.0011C-26.7977 7.04314 7.4343 -13.2374 48 -28.4993C34.1747 -29.5531 -11.6257 -12.387 -34 30.5012C-60.9999 82.256 -16.6361 154.989 46.0001 141.5Z" fill="#99C948"/>
<path d="M16 26.5012C-10.203 84.9704 47.5 111.001 62.0001 84.0013C47.4399 93.1253 29.7629 69.0011 34 50.5011C38.8669 29.2511 73.7835 2.94236 119.5 20.0011C168 45.5011 172 95.5002 166.5 136.5C175.533 125.981 195 74.0011 159.5 17.5011C137.671 -17.2408 42.2031 -31.968 16 26.5012Z" fill="#99C749"/>
</g>
</g>
<path d="M34.9877 66.1C33.1031 64.1231 32.439 61.9542 32.513 59.2501C32.6732 53.4014 36.2252 47.558 40.4011 43.6311C47.3141 37.1301 56.4089 34.4978 65.7648 34.8283C73.9672 35.1179 82.1648 38.0305 87.8392 44.1372C87.9876 44.2973 88.1341 44.4592 88.2787 44.6228C88.4231 44.7864 88.5655 44.9517 88.706 45.1189C88.8463 45.286 88.9847 45.4548 89.1209 45.6253C89.2573 45.7959 89.3915 45.968 89.5234 46.1419C89.6555 46.3157 89.7854 46.4911 89.9133 46.6681C90.0411 46.8451 90.1666 47.0236 90.2899 47.2037C90.4134 47.3837 90.5346 47.5653 90.6535 47.7483C90.7725 47.9313 90.8892 48.1158 91.0035 48.3017C91.118 48.4876 91.2302 48.6748 91.34 48.8635C91.4498 49.0522 91.5573 49.2421 91.6625 49.4333C91.7677 49.6246 91.8705 49.8171 91.971 50.0109C92.0715 50.2047 92.1695 50.3997 92.2651 50.596C92.3609 50.7922 92.4542 50.9895 92.5451 51.1879C92.636 51.3865 92.7244 51.5861 92.8102 51.7866C92.8963 51.9872 92.9798 52.1889 93.0608 52.3917C93.1418 52.5943 93.2203 52.798 93.2965 53.0026C93.3725 53.2072 93.446 53.4127 93.517 53.6192C93.588 53.8256 93.6564 54.0328 93.7223 54.2409C93.7882 54.449 93.8516 54.6579 93.9124 54.8676C93.9732 55.0772 94.0315 55.2876 94.0872 55.4986C94.1429 55.7097 94.1959 55.9214 94.2463 56.1338C94.2968 56.3462 94.3447 56.5591 94.3899 56.7726C94.4352 56.9862 94.4779 57.2003 94.5179 57.4149C94.5579 57.6295 94.5952 57.8445 94.6301 58.0599C94.6648 58.2755 94.6968 58.4914 94.7262 58.7077C94.7557 58.924 94.7826 59.1407 94.8067 59.3576C94.8308 59.5746 94.8522 59.7918 94.8711 60.0093C94.8899 60.2267 94.9061 60.4443 94.9196 60.6623C94.9331 60.8801 94.9439 61.0981 94.9521 61.3163C94.9602 61.5344 94.9657 61.7526 94.9686 61.9709C94.9713 62.1892 94.9714 62.4074 94.9689 62.6256C94.9664 62.8439 94.9612 63.0621 94.9533 63.2803C94.6888 70.2791 91.9496 75.9128 86.8196 80.6325C84.9578 82.3456 82.9177 83.9047 80.8581 85.3712C77.9847 87.5193 74.6861 90.2307 73.1532 93.5438C72.3889 95.1585 72.3276 96.4126 71.8856 98.0589C71.1664 100.738 69.1436 102.741 66.5579 103.663C63.9414 104.596 60.7218 104.507 58.2087 103.299C57.2372 102.832 56.4648 102.22 55.7061 101.461C53.9181 99.3834 53.4424 97.3591 53.2057 94.6908C53.1745 91.2423 54.5971 87.7919 56.3494 84.8884C56.7998 84.1615 57.2897 83.4602 57.7728 82.7547C58.9403 81.1941 60.2193 79.731 61.6099 78.3654C63.0916 76.9843 64.6005 75.6334 66.1365 74.3129C69.2586 71.6144 73.3945 68.5804 74.4306 64.3709C75.0242 61.9588 74.5382 59.8032 73.2737 57.7114C71.2497 55.131 68.4153 53.6747 65.1721 53.2855C61.5857 52.8549 57.8816 53.5449 55.0148 55.8352C51.6374 58.5334 51.8763 61.2624 49.8347 64.5744C48.0907 66.8461 46.1971 68.2968 43.2808 68.6965C40.6727 69.0541 37.9619 68.4339 35.8558 66.8328C35.5544 66.6035 35.2706 66.3513 34.9877 66.1Z" fill="#4A8C0A"/>
<ellipse cx="63.425" cy="121.109" rx="10.425" ry="10.5" fill="#4A8C0A"/>
</svg>
